{"title":"The Signal (2014).DVDrip.XviD - Italian English.Ac3.5.1.Sub.ita.","uid":12123823,"size":1546065188,"categoryP":"video","categoryS":"movies","magnet":"?xt=urn:btih:eb775aa7f678eac9ca2cebd686d25685c44e55d2&amp;dn=The+Signal+%282014%29.DVDrip.XviD+-+Italian+English.Ac3.5.1.Sub.ita.&amp;tr=udp%3A%2F%2Ftracker.openbittorrent.com%3A80&amp;tr=udp%3A%2F%2Fopen.demonii.com%3A1337&amp;tr=udp%3A%2F%2Ftracker.coppersurfer.tk%3A6969&amp;tr=udp%3A%2F%2Fexodus.desync.com%3A6969","seeders":10,"leechers":1,"uploader":"robbyrs4","files":4,"time":1436891256,"description":"The Signal (2014).DVDrip.XviD - Italian English.Ac3.5.1.Sub.ita.MIRCrew\n\n[center]\n\n[color=red][b][img]http://s19.postimg.org/w9ws99nmb/banner_mircrew_original_2.png[/img]\n\n[u]NO FOUND ONLY ORIGINAL RELEASE[/u]\n\nThe Signal (2014)\n\n[img]http://i.imgur.com/WCo3OCz.png[/img]\n\n[URL=http://www.imdb.com/title/tt2910814/][IMG]http://www.userlogos.org/files/logos/Sucka/imdb_new.png[/IMG][/URL]  \n\n[img]http://s19.postimg.org/vz5tzn42b/1_scheda.png[/img]\n\nTitolo originale \tThe Signal\nLingua originale \tinglese\nPaese di produzione \tStati Uniti\nAnno \t2014\nDurata \t97 min.\nGenere \tfantascienza, thriller\nRegia \tWilliam Eubank\nSceneggiatura \tCarlyle Eubank, David Frigerio, William Eubank\nProduttore \tBrian Kavanaugh-Jones, Tyler Davidson\nCasa di produzione \tImageMovers, Spyglass Entertainment\nFotografia \tDavid Lanzenberg\nMontaggio \tBrian Berdan\nMusiche \tNima Fakhrara\n\n[img]http://s19.postimg.org/q8fnlww2b/1_cast.png[/img]\n\n\n    Brenton Thwaites: Nic\n    Olivia Cooke: Haley\n    Lin Shaye: Mirabelle\n    Laurence Fishburne: Damon\n    Beau Knapp: Jonah\n    Robert Longstreet: James\n\n   \n[img]http://s19.postimg.org/okgi79i6r/1_trama.png[/img]\n\nTre studenti del MIT - Jonah, Nic, e Haley - sono in un viaggio per portare Haley in California, una decisione che tuttavia sta rendendo tesa la relazione fra Haley e Nic. Haley sente che Nic si sta allontanando da lei, ma Nic le spiega che non vuole che la sua distrofia muscolare sia un ostacolo per la sua vita.  Durante il loro soggiorno in un hotel, Nic e Jonah scoprono che un hacker di nome &quot;NOMAD&quot; (che era quasi riuscito ad espellere i due ragazzi per una loro incursione nei server del MIT) ha trovato la loro posizione e li schernisce con delle e-mail strane e minacciose.......\n\n[img]http://s19.postimg.org/fzn6g380j/1_story.png[/img]\n\nOn a road trip, Nic and two friends are drawn to an isolated area by a computer genius. When everything suddenly goes dark, Nic regains consciousness - only to find himself in a waking nightmare.................\n\n[url=http://postimg.org/image/pl4oa6aul/][img]http://s14.postimg.org/pl4oa6aul/vlcsnap_2015_07_14_16h05m28s229.jpg[/img][/url]\n\n[url=http://postimg.org/image/8q7mwub4l/][img]http://s18.postimg.org/8q7mwub4l/vlcsnap_2015_07_14_16h05m33s18.jpg[/img][/url]\n\n[url=http://postimg.org/image/cg0dhdykv/][img]http://s11.postimg.org/cg0dhdykv/vlcsnap_2015_07_14_16h05m40s84.jpg[/img][/url]\n\n[IMG]http://img153.imageshack.us/img153/3158/restateinseedblood.gif[/img]\n\n\n[img]http://imgur.com/lvhU6.gif[/img]\n\n\n[img]http://s19.postimg.org/a2jaz9qvn/1_dati.png[/img]\n\n\n[spoiler]\nGeneral\nComplete name                            : The Signal (2014).ita.eng.sub.ita.MIRCrewThe Signal (2014).ita.eng.sub.ita.MIRCrew.avi\nFormat                                   : AVI\nFormat/Info                              : Audio Video Interleave\nFile size                                : 1.44 GiB\nDuration                                 : 1h 33mn\nOverall bit rate                         : 2 204 Kbps\nWriting application                      : VirtualDubMod 1.5.10.2 (build 2540/release)\nWriting library                          : VirtualDubMod build 2540/release\n\nVideo\nID                                       : 0\nFormat                                   : MPEG-4 Visual\nFormat profile                           : Simple@L3\nFormat settings, BVOP                    : No\nFormat settings, QPel                    : No\nFormat settings, GMC                     : No warppoints\nFormat settings, Matrix                  : Default (H.263)\nCodec ID                                 : XVID\nCodec ID/Hint                            : XviD\nDuration                                 : 1h 33mn\nBit rate                                 : 1 293 Kbps\nWidth                                    : 688 pixels\nHeight                                   : 288 pixels\nDisplay aspect ratio                     : 2.40:1\nFrame rate                               : 25.000 fps\nColor space                              : YUV\nChroma subsampling                       : 4:2:0\nBit depth                                : 8 bits\nScan type                                : Progressive\nCompression mode                         : Lossy\nBits/(Pixel*Frame)                       : 0.261\nStream size                              : 864 MiB (59%)\nWriting library                          : XviD 1.2.1 (UTC 2008-12-04)\n\nAudio #1\nID                                       : 1\nFormat                                   : AC-3\nFormat/Info                              : Audio Coding 3\nMode extension                           : CM (complete main)\nCodec ID                                 : 2000\nDuration                                 : 1h 33mn\nBit rate mode                            : Constant\nBit rate                                 : 448 Kbps\nChannel(s)                               : 6 channels\nChannel positions                        : Front: L C R, Side: L R, LFE\nSampling rate                            : 48.0 KHz\nBit depth                                : 16 bits\nCompression mode                         : Lossy\nStream size                              : 299 MiB (20%)\nAlignment                                : Split accross interleaves\nInterleave, duration                     : 40 ms (1.00 video frame)\nInterleave, preload duration             : 500 ms\n\nAudio #2\nID                                       : 2\nFormat                                   : AC-3\nFormat/Info                              : Audio Coding 3\nMode extension                           : CM (complete main)\nCodec ID                                 : 2000\nDuration                                 : 1h 33mn\nBit rate mode                            : Constant\nBit rate                                 : 448 Kbps\nChannel(s)                               : 6 channels\nChannel positions                        : Front: L C R, Side: L R, LFE\nSampling rate                            : 48.0 KHz\nBit depth                                : 16 bits\nCompression mode                         : Lossy\nStream size                              : 299 MiB (20%)\nAlignment                                : Split accross interleaves\nInterleave, duration                     : 40 ms (1.00 video frame)\nInterleave, preload duration             : 500 ms\n\n\n[/spoiler]\n\n[/color][/b][/center]","torrent":{"xt":"urn:btih:eb775aa7f678eac9ca2cebd686d25685c44e55d2","amp;dn":"The+Signal+%282014%29.DVDrip.XviD+-+Italian+English.Ac3.5.1.Sub.ita.","amp;tr":["udp%3A%2F%2Ftracker.openbittorrent.com%3A80","udp%3A%2F%2Fopen.demonii.com%3A1337","udp%3A%2F%2Ftracker.coppersurfer.tk%3A6969","udp%3A%2F%2Fexodus.desync.com%3A6969"],"infoHash":"eb775aa7f678eac9ca2cebd686d25685c44e55d2","infoHashBuffer":{"type":"Buffer","data":[235,119,90,167,246,120,234,201,202,44,235,214,134,210,86,133,196,78,85,210]},"announce":[],"urlList":[]}}